<?xml version="1.0" encoding="utf-8"?>
<!-- Generator: Adobe Illustrator 25.2.3, SVG Export Plug-In . SVG Version: 6.00 Build 0)  -->
<svg version="1.1" id="Layer_1" xmlns="http://www.w3.org/2000/svg" xmlns:xlink="http://www.w3.org/1999/xlink" x="0px" y="0px"
	 viewBox="0 0 128 128" style="enable-background:new 0 0 128 128;" xml:space="preserve">
<style type="text/css">
	.st0{fill:#FFFFFF;}
	.st1{fill-rule:evenodd;clip-rule:evenodd;fill:#FFFFFF;}
</style>
<g>
	<path class="st0" d="M58.3,87H46.7l12.7-12.7c1.6-1.6,1.6-4.1,0-5.7c-1.6-1.6-4.1-1.6-5.7,0L41,81.3V69.7c0-2.2-1.8-4-4-4
		c-2.2,0-4,1.8-4,4V91c0,0.1,0,0.2,0,0.2c0,0.2,0,0.4,0.1,0.5c0,0.2,0.1,0.3,0.1,0.5c0,0.1,0.1,0.2,0.1,0.3c0.1,0.2,0.2,0.3,0.3,0.5
		c0,0.1,0.1,0.1,0.1,0.2c0.3,0.4,0.7,0.8,1.1,1.1c0.1,0.1,0.2,0.1,0.3,0.2c0.1,0.1,0.2,0.1,0.4,0.2c0.1,0.1,0.3,0.1,0.4,0.1
		c0.1,0,0.2,0.1,0.3,0.1C36.5,95,36.7,95,37,95c0,0,0,0,0,0s0,0,0,0h21.3c2.2,0,4-1.8,4-4S60.5,87,58.3,87z"/>
	<path class="st0" d="M95,37c0-0.2,0-0.5-0.1-0.7c0-0.1-0.1-0.3-0.1-0.4c0-0.1-0.1-0.2-0.1-0.4c-0.1-0.1-0.1-0.3-0.2-0.4
		c-0.1-0.1-0.1-0.2-0.2-0.3c-0.1-0.2-0.3-0.4-0.5-0.6c0,0,0,0,0,0c0,0,0,0,0,0c-0.2-0.2-0.4-0.3-0.6-0.5c-0.1-0.1-0.2-0.1-0.3-0.2
		c-0.1-0.1-0.2-0.1-0.3-0.2c-0.2-0.1-0.3-0.1-0.5-0.1c-0.1,0-0.2-0.1-0.3-0.1C91.5,33,91.2,33,91,33H69.7c-2.2,0-4,1.8-4,4
		c0,2.2,1.8,4,4,4h11.6L68.6,53.8c-1.6,1.6-1.6,4.1,0,5.7c0.8,0.8,1.8,1.2,2.8,1.2c1,0,2.1-0.4,2.8-1.2L87,46.7v11.6
		c0,2.2,1.8,4,4,4c2.2,0,4-1.8,4-4L95,37C95,37,95,37,95,37z"/>
</g>
</svg>
