<?xml version="1.0" encoding="utf-8"?>
<!-- Generator: Adobe Illustrator 25.2.3, SVG Export Plug-In . SVG Version: 6.00 Build 0)  -->
<svg version="1.1" id="Layer_1" xmlns="http://www.w3.org/2000/svg" xmlns:xlink="http://www.w3.org/1999/xlink" x="0px" y="0px"
	 viewBox="0 0 128 128" style="enable-background:new 0 0 128 128;" xml:space="preserve">
<style type="text/css">
	.st0{fill:#FFFFFF;}
	.st1{fill-rule:evenodd;clip-rule:evenodd;fill:#FFFFFF;}
</style>
<g>
	<path class="st0" d="M87.9,73.6l-2.3-3.8c-1.2-2-3.2-3.4-5.6-3.8l-2.9-0.5l-0.1-0.7h1.8c0.5,0,1-0.2,1.4-0.6l4.2-4
		c0.8-0.8,0.8-2.1,0.1-2.9c-0.8-0.8-2.1-0.8-2.9-0.1l-3.5,3.5h-1.8l-0.5-2.7l1.3-0.2c2.4-0.4,4.4-1.8,5.6-3.9l2.3-3.8
		c0.5-1,0-2.2-1-2.7c-0.9-0.4-1.9-0.1-2.5,0.7L79.3,52c-0.6,1.1-1.6,1.8-2.8,2l-2,0.3c-0.7-1-1.7-1.8-2.9-2.3v-2.3
		c0-1.4-0.4-2.8-1.2-4c0.2,0,0.4-0.1,0.5-0.2c0.3-0.2,0.7-0.4,1-0.6l0.7-0.4c0.2-0.1,0.3-0.2,0.4-0.4c0.4-1.1,0.9-2.3,1.3-3.4
		c0.4-1.2,0.8-2.3,1.1-3.5c0-0.1,0-0.1,0-0.2c-0.1-0.1-0.2-0.1-0.3,0c-0.9,0.9-1.7,1.8-2.6,2.7s-1.1,1.3-1.7,2H70
		c-0.4,0-0.8,0.1-1.1,0.3c-0.5,0.3-1,0.8-1.3,1.3c-1.1-0.6-2.3-1-3.6-1c-1.2,0-2.4,0.3-3.4,0.9c-0.3-0.5-0.8-1-1.3-1.3
		c-0.3-0.2-0.7-0.3-1.1-0.3h-0.8c-0.5-0.7-1.1-1.3-1.7-2C55,38.9,53.9,37.9,53,37c-0.1,0-0.1,0-0.2,0c-0.1,0-0.2,0.2-0.1,0.3
		c0.3,1.2,0.7,2.4,1.1,3.5c0.4,1.2,0.8,2.3,1.3,3.4c0.1,0.2,0.2,0.3,0.4,0.4l0.7,0.4c0.3,0.2,0.7,0.4,1,0.6c0.2,0.1,0.4,0.2,0.5,0.2
		c-0.8,1.2-1.2,2.6-1.2,4V52c-1.2,0.5-2.2,1.2-2.9,2.3l-2-0.3c-1.2-0.2-2.2-1-2.8-2l-2.3-3.7c-0.7-0.9-1.9-1.1-2.8-0.4
		c-0.8,0.6-1,1.6-0.7,2.5l2.3,3.8c1.2,2.1,3.3,3.5,5.6,3.9l1.3,0.2l-0.5,2.7h-1.9l-3.5-3.4c-0.8-0.8-2.1-0.8-2.9,0.1
		c-0.8,0.8-0.8,2.1,0.1,2.9l0,0l4.2,4c0.4,0.4,0.9,0.6,1.4,0.6H51l-0.1,0.7l-3,0.5c-2.4,0.4-4.4,1.8-5.6,3.8L40,73.6
		c-0.6,1-0.2,2.2,0.7,2.8c0,0,0,0,0,0c0.3,0.2,0.7,0.3,1,0.3c0.7,0,1.4-0.4,1.8-1l2.3-3.8c0.6-1,1.6-1.7,2.8-1.9l1.5-0.2l-0.7,3.6
		c-1.5,8.1,3.8,15.9,11.9,17.4c8.1,1.5,15.9-3.8,17.4-11.9c0.3-1.8,0.3-3.7,0-5.6L78,69.7l1.5,0.2c1.2,0.2,2.2,0.9,2.8,1.9l2.2,3.8
		c0.4,0.6,1,1,1.8,1c0.4,0,0.7-0.1,1-0.3C88.2,75.8,88.5,74.6,87.9,73.6z"/>
</g>
</svg>
